<?xml version="1.0" standalone="no"?><!DOCTYPE svg PUBLIC "-//W3C//DTD SVG 1.1//EN" "http://www.w3.org/Graphics/SVG/1.1/DTD/svg11.dtd"><svg xmlns:xlink="http://www.w3.org/1999/xlink" version="1.1" style="font-family:dosis, sans-serif;font-size:12px;" xmlns="http://www.w3.org/2000/svg" width="600" height="400"><desc>Created with Highcharts 4.2.7</desc><defs><clipPath id="highcharts-57"><rect x="0" y="0" width="580" height="300"></rect></clipPath></defs><rect x="1" y="1" width="598" height="398" fill="none" class=" highcharts-background"></rect><g class="highcharts-series-group"><g class="highcharts-series highcharts-series-0" transform="translate(10,45) scale(1 1)"><path fill="#50b432" d="M 289.97627207176953 29.5000024163716 A 116.5 116.5 0 0 1 397.6631061279701 190.5073654452547 L 290 146 A 0 0 0 0 0 290 146 Z" stroke="#FFFFFF" stroke-width="1" stroke-linejoin="round" transform="translate(0,0)"></path><path fill="#ED561B" d="M 397.61854493839417 190.61500627975795 A 116.5 116.5 0 0 1 290.0927720618004 262.49996306155873 L 290 146 A 0 0 0 0 0 290 146 Z" stroke="#FFFFFF" stroke-width="1" stroke-linejoin="round" transform="translate(0,0)"></path><path fill="#DDDF00" d="M 289.97627207176953 262.4999975836284 A 116.5 116.5 0 0 1 245.57838367378423 253.69851439535495 L 290 146 A 0 0 0 0 0 290 146 Z" stroke="#FFFFFF" stroke-width="1" stroke-linejoin="round" transform="translate(0,0)"></path><path fill="#24CBE5" d="M 245.47070738814494 253.65403893717962 A 116.5 116.5 0 0 1 207.54047897875037 63.70372187670884 L 290 146 A 0 0 0 0 0 290 146 Z" stroke="#FFFFFF" stroke-width="1" stroke-linejoin="round" transform="translate(0,0)"></path><path fill="#64E572" d="M 207.62281647291468 63.621303517566474 A 116.5 116.5 0 0 1 289.8381838372147 29.500112379756075 L 290 146 A 0 0 0 0 0 290 146 Z" stroke="#FFFFFF" stroke-width="1" stroke-linejoin="round" transform="translate(0,0)"></path></g><g class="highcharts-markers highcharts-series-0" transform="translate(10,45) scale(1 1)"></g></g><text x="300" text-anchor="middle" class="highcharts-title" style="color:#333;font-size:16px;font-family:dosis, sans-serif;font-weight:bold;text-transform:uppercase;fill:#333;width:536px;" y="22"><tspan>Websites you visited</tspan></text><g class="highcharts-data-labels highcharts-series-0" transform="translate(10,45) scale(1 1)" opacity="1"><path fill="none" d="M 416.8102982023229 64.10896086262828 C 411.8102982023229 64.10896086262828 405.1585413039025 68.5535227267851 396.0123755685745 74.66479529000073 L 386.8662098332465 80.77606785321635" stroke="#50b432" stroke-width="1"></path><path fill="none" d="M 376.39103913737176 267.3102982023229 C 371.39103913737176 267.3102982023229 366.9464772732149 260.6585413039025 360.8352047099993 251.5123755685745 L 354.7239321467837 242.3662098332465" stroke="#ED561B" stroke-width="1"></path><path fill="none" d="M 256.41926782463713 289.18504357907324 C 261.41926782463713 289.18504357907324 262.97999040076627 281.33876133584744 265.12598394294366 270.5501232514119 L 267.27197748512106 259.76148516697634" stroke="#DDDF00" stroke-width="1"></path><path fill="none" d="M 141.31495642092673 174.08073217536284 C 146.31495642092673 174.08073217536284 154.16123866415256 172.52000959923382 164.9498767485881 170.3740160570564 L 175.73851483302366 168.22802251487897" stroke="#24CBE5" stroke-width="1"></path><path fill="none" d="M 228.9368771585143 10.151648487096523 C 233.9368771585143 10.151648487096523 236.99834461743498 17.54268474718681 241.20786237345098 27.705359604810965 L 245.41738012946698 37.86803446243512" stroke="#64E572" stroke-width="1"></path><g style="cursor:pointer;" transform="translate(422,54)"><text x="5" style="font-size:10px;font-weight:bold;font-family:'arial', sans-serif;color:#333;text-shadow:0 0 6px #ffffff, 0 0 3px #ffffff;fill:#333;text-rendering:geometricprecision;" y="15"><tspan>Facebook : 5 hours</tspan></text></g><g style="cursor:pointer;" transform="translate(381,257)"><text x="5" style="font-size:10px;font-weight:bold;font-family:'arial', sans-serif;color:#333;text-shadow:0 0 6px #ffffff, 0 0 3px #ffffff;fill:#333;text-rendering:geometricprecision;" y="15"><tspan>Twiiter : 3 hours</tspan></text></g><g style="cursor:pointer;" transform="translate(133,279)"><text x="5" style="font-size:10px;font-weight:bold;font-family:'arial', sans-serif;color:#333;text-shadow:0 0 6px #ffffff, 0 0 3px #ffffff;fill:#333;text-rendering:geometricprecision;" y="15"><tspan>Tech Crunch : 1 hours</tspan></text></g><g style="cursor:pointer;" transform="translate(52,164)"><text x="5" style="font-size:10px;font-weight:bold;font-family:'arial', sans-serif;color:#333;text-shadow:0 0 6px #ffffff, 0 0 3px #ffffff;fill:#333;text-rendering:geometricprecision;" y="15"><tspan>ESPN : 5 hours</tspan></text></g><g style="cursor:pointer;" transform="translate(150,0)"><text x="5" style="font-size:10px;font-weight:bold;font-family:'arial', sans-serif;color:#333;text-shadow:0 0 6px #ffffff, 0 0 3px #ffffff;fill:#333;text-rendering:geometricprecision;" y="15"><tspan>IGN : 2 hours</tspan></text></g></g><g class="highcharts-legend" transform="translate(101,357)"><g><g><g class="highcharts-legend-item" transform="translate(8,3)"><text x="21" style="color:#333;font-size:13px;font-weight:bold;cursor:pointer;font-family:dosis, sans-serif;text-transform:none;fill:#333;" text-anchor="start" y="16">Facebook</text><rect x="0" y="4" width="16" height="13" fill="#50b432"></rect></g><g class="highcharts-legend-item" transform="translate(97.453125,3)"><text x="21" y="16" style="color:#333;font-size:13px;font-weight:bold;cursor:pointer;font-family:dosis, sans-serif;text-transform:none;fill:#333;" text-anchor="start">Twiiter</text><rect x="0" y="4" width="16" height="13" fill="#ED561B"></rect></g><g class="highcharts-legend-item" transform="translate(175.234375,3)"><text x="21" y="16" style="color:#333;font-size:13px;font-weight:bold;cursor:pointer;font-family:dosis, sans-serif;text-transform:none;fill:#333;" text-anchor="start"><tspan>Tech Crunch</tspan></text><rect x="0" y="4" width="16" height="13" fill="#DDDF00"></rect></g><g class="highcharts-legend-item" transform="translate(281,3)"><text x="21" y="16" style="color:#333;font-size:13px;font-weight:bold;cursor:pointer;font-family:dosis, sans-serif;text-transform:none;fill:#333;" text-anchor="start">ESPN</text><rect x="0" y="4" width="16" height="13" fill="#24CBE5"></rect></g><g class="highcharts-legend-item" transform="translate(350.21875,3)"><text x="21" y="16" style="color:#333;font-size:13px;font-weight:bold;cursor:pointer;font-family:dosis, sans-serif;text-transform:none;fill:#333;" text-anchor="start">IGN</text><rect x="0" y="4" width="16" height="13" fill="#64E572"></rect></g></g></g></g><g class="highcharts-tooltip" display="none" style="cursor:default;padding:0;pointer-events:none;white-space:nowrap;" transform="translate(0,0)"><path fill="rgb(219,219,216)" fill-opacity="0.8" d="M 3 0 L 13 0 C 16 0 16 0 16 3 L 16 13 C 16 16 16 16 13 16 L 3 16 C 0 16 0 16 0 13 L 0 3 C 0 0 0 0 3 0"></path><text x="8" style="font-size:12px;color:#333;fill:#333;" y="20"></text></g><text x="590" text-anchor="end" style="cursor:pointer;color:#666;font-size:9px;fill:#666;" y="395">meta-chart.com</text></svg>